HIERARCHY
ROOT mixamorig:Hips
{
	OFFSET -0.000008 104.274872 1.554316
	CHANNELS 6 Xposition Yposition Zposition Xrotation Yrotation Zrotation
	JOINT mixamorig:Spine
	{
		OFFSET -0.000005 10.181595 0.131519
		CHANNELS 6 Xposition Yposition Zposition Xrotation Yrotation Zrotation
		JOINT mixamorig:Spine1
		{
			OFFSET -0.000000 9.893959 -1.470707
			CHANNELS 6 Xposition Yposition Zposition Xrotation Yrotation Zrotation
			JOINT mixamorig:Spine2
			{
				OFFSET -0.000000 9.220757 -1.370641
				CHANNELS 6 Xposition Yposition Zposition Xrotation Yrotation Zrotation
				JOINT mixamorig:Neck
				{
					OFFSET 0.000001 16.740417 -2.049036
					CHANNELS 6 Xposition Yposition Zposition Xrotation Yrotation Zrotation
					JOINT mixamorig:Head
					{
						OFFSET 0.000000 9.617874 1.685006
						CHANNELS 6 Xposition Yposition Zposition Xrotation Yrotation Zrotation
						JOINT mixamorig:HeadTop_End
						{
							OFFSET 0.000002 22.037354 7.501101
							CHANNELS 6 Xposition Yposition Zposition Xrotation Yrotation Zrotation
							End Site
							{
								OFFSET 0.000168 2310.654297 -282.823242
							}
						}
					}
				}
				JOINT mixamorig:RightShoulder
				{
					OFFSET -4.569970 11.014908 -2.160885
					CHANNELS 6 Xposition Yposition Zposition Xrotation Yrotation Zrotation
					JOINT mixamorig:RightArm
					{
						OFFSET -10.592851 -0.524811 -2.232101
						CHANNELS 6 Xposition Yposition Zposition Xrotation Yrotation Zrotation
						JOINT mixamorig:RightForeArm
						{
							OFFSET -27.841511 0.000031 -0.000004
							CHANNELS 6 Xposition Yposition Zposition Xrotation Yrotation Zrotation
							JOINT mixamorig:RightHand
							{
								OFFSET -28.328831 -0.000015 0.000015
								CHANNELS 6 Xposition Yposition Zposition Xrotation Yrotation Zrotation
								JOINT mixamorig:RightHandThumb1
								{
									OFFSET -2.464806 -1.573990 2.681852
									CHANNELS 6 Xposition Yposition Zposition Xrotation Yrotation Zrotation
									JOINT mixamorig:RightHandThumb2
									{
										OFFSET -3.215179 -1.872803 1.924282
										CHANNELS 6 Xposition Yposition Zposition Xrotation Yrotation Zrotation
										JOINT mixamorig:RightHandThumb3
										{
											OFFSET -2.654831 -1.527969 1.512609
											CHANNELS 6 Xposition Yposition Zposition Xrotation Yrotation Zrotation
											JOINT mixamorig:RightHandThumb4
											{
												OFFSET -2.018814 -1.152008 1.108052
												CHANNELS 6 Xposition Yposition Zposition Xrotation Yrotation Zrotation
												End Site
												{
													OFFSET -188.809540 -114.533607 132.431396
												}
											}
										}
									}
								}
								JOINT mixamorig:RightHandIndex1
								{
									OFFSET -9.108284 -0.517868 2.259835
									CHANNELS 6 Xposition Yposition Zposition Xrotation Yrotation Zrotation
									JOINT mixamorig:RightHandIndex2
									{
										OFFSET -3.699989 0.000000 0.001215
										CHANNELS 6 Xposition Yposition Zposition Xrotation Yrotation Zrotation
										JOINT mixamorig:RightHandIndex3
										{
											OFFSET -2.850006 0.000031 -0.000522
											CHANNELS 6 Xposition Yposition Zposition Xrotation Yrotation Zrotation
											JOINT mixamorig:RightHandIndex4
											{
												OFFSET -2.772186 -0.000015 -0.000020
												CHANNELS 6 Xposition Yposition Zposition Xrotation Yrotation Zrotation
												End Site
												{
													OFFSET -277.218445 0.000000 -0.050231
												}
											}
										}
									}
								}
								JOINT mixamorig:RightHandMiddle1
								{
									OFFSET -9.532516 -0.000031 -0.000023
									CHANNELS 6 Xposition Yposition Zposition Xrotation Yrotation Zrotation
									JOINT mixamorig:RightHandMiddle2
									{
										OFFSET -3.700005 -0.000015 0.003713
										CHANNELS 6 Xposition Yposition Zposition Xrotation Yrotation Zrotation
										JOINT mixamorig:RightHandMiddle3
										{
											OFFSET -2.949974 0.000015 -0.002054
											CHANNELS 6 Xposition Yposition Zposition Xrotation Yrotation Zrotation
											JOINT mixamorig:RightHandMiddle4
											{
												OFFSET -2.946640 0.000000 -0.000156
												CHANNELS 6 Xposition Yposition Zposition Xrotation Yrotation Zrotation
												End Site
												{
													OFFSET -294.664337 0.000000 -0.113670
												}
											}
										}
									}
								}
								JOINT mixamorig:RightHandRing1
								{
									OFFSET -9.103600 -0.043076 -1.865134
									CHANNELS 6 Xposition Yposition Zposition Xrotation Yrotation Zrotation
									JOINT mixamorig:RightHandRing2
									{
										OFFSET -3.379288 0.000000 -0.001055
										CHANNELS 6 Xposition Yposition Zposition Xrotation Yrotation Zrotation
										JOINT mixamorig:RightHandRing3
										{
											OFFSET -2.889687 -0.000015 0.000379
											CHANNELS 6 Xposition Yposition Zposition Xrotation Yrotation Zrotation
											JOINT mixamorig:RightHandRing4
											{
												OFFSET -2.638809 -0.000015 0.000941
												CHANNELS 6 Xposition Yposition Zposition Xrotation Yrotation Zrotation
												End Site
												{
													OFFSET -263.880371 0.000000 0.516020
												}
											}
										}
									}
								}
								JOINT mixamorig:RightHandPinky1
								{
									OFFSET -8.076683 -0.486710 -3.806280
									CHANNELS 6 Xposition Yposition Zposition Xrotation Yrotation Zrotation
									JOINT mixamorig:RightHandPinky2
									{
										OFFSET -3.600014 -0.000015 -0.003747
										CHANNELS 6 Xposition Yposition Zposition Xrotation Yrotation Zrotation
										JOINT mixamorig:RightHandPinky3
										{
											OFFSET -2.099983 0.000000 -0.005739
											CHANNELS 6 Xposition Yposition Zposition Xrotation Yrotation Zrotation
											JOINT mixamorig:RightHandPinky4
											{
												OFFSET -2.115768 -0.000031 -0.003680
												CHANNELS 6 Xposition Yposition Zposition Xrotation Yrotation Zrotation
												End Site
												{
													OFFSET -211.577087 0.000000 -0.350686
												}
											}
										}
									}
								}
							}
						}
					}
				}
				JOINT mixamorig:LeftShoulder
				{
					OFFSET 4.570447 11.014725 -2.160855
					CHANNELS 6 Xposition Yposition Zposition Xrotation Yrotation Zrotation
					JOINT mixamorig:LeftArm
					{
						OFFSET 10.592371 -0.524597 -2.232119
						CHANNELS 6 Xposition Yposition Zposition Xrotation Yrotation Zrotation
						JOINT mixamorig:LeftForeArm
						{
							OFFSET 27.841532 -0.000031 0.000026
							CHANNELS 6 Xposition Yposition Zposition Xrotation Yrotation Zrotation
							JOINT mixamorig:LeftHand
							{
								OFFSET 28.328846 -0.000061 0.000022
								CHANNELS 6 Xposition Yposition Zposition Xrotation Yrotation Zrotation
								JOINT mixamorig:LeftHandThumb1
								{
									OFFSET 2.466141 -1.576172 2.681732
									CHANNELS 6 Xposition Yposition Zposition Xrotation Yrotation Zrotation
									JOINT mixamorig:LeftHandThumb2
									{
										OFFSET 3.217812 -1.872070 1.916482
										CHANNELS 6 Xposition Yposition Zposition Xrotation Yrotation Zrotation
										JOINT mixamorig:LeftHandThumb3
										{
											OFFSET 2.656029 -1.528778 1.514513
											CHANNELS 6 Xposition Yposition Zposition Xrotation Yrotation Zrotation
											JOINT mixamorig:LeftHandThumb4
											{
												OFFSET 2.020889 -1.154053 1.115139
												CHANNELS 6 Xposition Yposition Zposition Xrotation Yrotation Zrotation
												End Site
												{
													OFFSET 190.885437 -115.081749 130.048782
												}
											}
										}
									}
								}
								JOINT mixamorig:LeftHandIndex1
								{
									OFFSET 9.109314 -0.518021 2.259871
									CHANNELS 6 Xposition Yposition Zposition Xrotation Yrotation Zrotation
									JOINT mixamorig:LeftHandIndex2
									{
										OFFSET 3.699989 0.000000 -0.000322
										CHANNELS 6 Xposition Yposition Zposition Xrotation Yrotation Zrotation
										JOINT mixamorig:LeftHandIndex3
										{
											OFFSET 2.850006 0.000000 0.000352
											CHANNELS 6 Xposition Yposition Zposition Xrotation Yrotation Zrotation
											JOINT mixamorig:LeftHandIndex4
											{
												OFFSET 2.774864 -0.000031 -0.000027
												CHANNELS 6 Xposition Yposition Zposition Xrotation Yrotation Zrotation
												End Site
												{
													OFFSET 277.486267 0.000000 -0.009857
												}
											}
										}
									}
								}
								JOINT mixamorig:LeftHandMiddle1
								{
									OFFSET 9.533394 0.000061 0.000044
									CHANNELS 6 Xposition Yposition Zposition Xrotation Yrotation Zrotation
									JOINT mixamorig:LeftHandMiddle2
									{
										OFFSET 3.699989 -0.000015 -0.000231
										CHANNELS 6 Xposition Yposition Zposition Xrotation Yrotation Zrotation
										JOINT mixamorig:LeftHandMiddle3
										{
											OFFSET 2.949997 -0.000015 -0.000059
											CHANNELS 6 Xposition Yposition Zposition Xrotation Yrotation Zrotation
											JOINT mixamorig:LeftHandMiddle4
											{
												OFFSET 2.952896 0.000031 0.000063
												CHANNELS 6 Xposition Yposition Zposition Xrotation Yrotation Zrotation
												End Site
												{
													OFFSET 295.289337 0.000000 0.022810
												}
											}
										}
									}
								}
								JOINT mixamorig:LeftHandRing1
								{
									OFFSET 9.104523 -0.042999 -1.865074
									CHANNELS 6 Xposition Yposition Zposition Xrotation Yrotation Zrotation
									JOINT mixamorig:LeftHandRing2
									{
										OFFSET 3.150009 -0.000031 0.000043
										CHANNELS 6 Xposition Yposition Zposition Xrotation Yrotation Zrotation
										JOINT mixamorig:LeftHandRing3
										{
											OFFSET 2.949982 -0.000015 0.000040
											CHANNELS 6 Xposition Yposition Zposition Xrotation Yrotation Zrotation
											JOINT mixamorig:LeftHandRing4
											{
												OFFSET 2.644348 0.000000 0.000057
												CHANNELS 6 Xposition Yposition Zposition Xrotation Yrotation Zrotation
												End Site
												{
													OFFSET 264.434631 0.000000 0.012105
												}
											}
										}
									}
								}
								JOINT mixamorig:LeftHandPinky1
								{
									OFFSET 8.077789 -0.486847 -3.806259
									CHANNELS 6 Xposition Yposition Zposition Xrotation Yrotation Zrotation
									JOINT mixamorig:LeftHandPinky2
									{
										OFFSET 3.599953 0.000031 0.014727
										CHANNELS 6 Xposition Yposition Zposition Xrotation Yrotation Zrotation
										JOINT mixamorig:LeftHandPinky3
										{
											OFFSET 2.100021 0.000015 0.007705
											CHANNELS 6 Xposition Yposition Zposition Xrotation Yrotation Zrotation
											JOINT mixamorig:LeftHandPinky4
											{
												OFFSET 2.125504 0.000031 0.007517
												CHANNELS 6 Xposition Yposition Zposition Xrotation Yrotation Zrotation
												End Site
												{
													OFFSET 212.550781 0.000000 0.625752
												}
											}
										}
									}
								}
							}
						}
					}
				}
			}
		}
	}
	JOINT mixamorig:RightUpLeg
	{
		OFFSET -8.207787 -6.751648 -1.599560
		CHANNELS 6 Xposition Yposition Zposition Xrotation Yrotation Zrotation
		JOINT mixamorig:RightLeg
		{
			OFFSET -0.000002 -44.370117 0.345942
			CHANNELS 6 Xposition Yposition Zposition Xrotation Yrotation Zrotation
			JOINT mixamorig:RightFoot
			{
				OFFSET 0.000003 -44.423679 -3.043532
				CHANNELS 6 Xposition Yposition Zposition Xrotation Yrotation Zrotation
				JOINT mixamorig:RightToeBase
				{
					OFFSET -0.000002 -8.728671 10.710558
					CHANNELS 6 Xposition Yposition Zposition Xrotation Yrotation Zrotation
					JOINT mixamorig:RightToe_End
					{
						OFFSET -0.000001 -0.000679 9.278119
						CHANNELS 6 Xposition Yposition Zposition Xrotation Yrotation Zrotation
						End Site
						{
							OFFSET 0.000000 -0.067690 927.812134
						}
					}
				}
			}
		}
	}
	JOINT mixamorig:LeftUpLeg
	{
		OFFSET 8.207793 -6.751686 -1.599556
		CHANNELS 6 Xposition Yposition Zposition Xrotation Yrotation Zrotation
		JOINT mixamorig:LeftLeg
		{
			OFFSET -0.000004 -44.370014 0.346954
			CHANNELS 6 Xposition Yposition Zposition Xrotation Yrotation Zrotation
			JOINT mixamorig:LeftFoot
			{
				OFFSET -0.000001 -44.423672 -3.044401
				CHANNELS 6 Xposition Yposition Zposition Xrotation Yrotation Zrotation
				JOINT mixamorig:LeftToeBase
				{
					OFFSET -0.000002 -8.728669 10.710558
					CHANNELS 6 Xposition Yposition Zposition Xrotation Yrotation Zrotation
					JOINT mixamorig:LeftToe_End
					{
						OFFSET -0.000003 -0.000679 9.278133
						CHANNELS 6 Xposition Yposition Zposition Xrotation Yrotation Zrotation
						End Site
						{
							OFFSET 0.000000 -0.068021 927.813477
						}
					}
				}
			}
		}
	}
}
MOTION
Frames: 3
Frame Time: 0.033333
0.000006 104.270477 1.554256 0.000010 0.000003 -0.000113 -0.000005 10.181587 0.131522 0.000001 -0.000003 0.000084 -0.000000 9.893967 -1.470711 0.000001 0.000000 -0.000000 -0.000000 9.220802 -1.370642 0.000000 -0.000000 -0.000000 0.000001 16.740433 -2.049030 0.000000 -0.000000 -0.000000 0.000000 9.617859 1.685014 0.000000 0.000000 0.000000 0.000002 22.037384 7.501101 0.000000 -0.000000 0.000000 -4.569968 11.014880 -2.160881 0.000008 0.000001 -0.000038 -10.592869 -0.524784 -2.231884 72.879771 33.813309 -25.297313 -27.841515 0.000016 0.000541 -54.546509 107.520230 70.243393 -28.328812 0.000006 0.000027 -0.000320 -0.000046 0.000006 -2.464406 -1.573841 2.682353 -41.207822 -159.577698 5.726663 -3.215285 -1.872552 1.924663 153.576298 31.769590 5.716894 -2.654950 -1.527879 1.513089 146.427453 26.988941 -37.664282 -2.018835 -1.152012 1.108059 -0.000002 0.000003 0.000005 -9.108380 -0.517560 2.260132 99.751867 17.851801 -21.168343 -3.700065 0.000309 0.001512 93.608590 14.092162 -14.973515 -2.850075 0.000365 -0.000269 93.282373 11.629359 -12.309317 -2.772171 0.000001 -0.000017 0.000001 -0.000001 -0.000000 -9.532576 0.000263 0.000241 92.075622 17.164523 -17.936890 -3.700054 0.000342 0.003961 92.977958 10.993121 -11.477611 -2.950062 0.000329 -0.001813 93.817593 11.325401 -12.093142 -2.946641 0.000001 -0.000156 0.000001 0.000000 -0.000002 -9.103694 -0.042756 -1.864881 90.840553 18.426399 -18.648150 -3.379322 0.000322 -0.000837 89.006558 6.800270 -6.700068 -2.889735 0.000370 0.000607 93.020271 4.778964 -5.083986 -2.638813 -0.000019 0.000939 0.000002 -0.000000 0.000004 -8.076739 -0.486389 -3.806020 86.285035 18.355158 -17.076649 -3.600028 0.000281 -0.003534 89.245950 6.577111 -6.149611 -2.099999 0.000320 -0.005487 91.031627 4.273468 -4.132132 -2.115783 -0.000053 -0.003682 0.000002 0.000001 -0.000000 4.570446 11.014691 -2.160851 -0.000018 0.000010 -0.000021 10.592428 -0.524455 -2.232380 76.233278 -21.736993 17.133017 27.841824 0.000062 -0.000217 107.761766 -70.994803 88.689924 28.328838 -0.000030 0.000023 0.000026 -0.000087 -0.000000 2.465893 -1.576104 2.681908 -50.010689 174.913044 16.912868 3.217863 -1.871811 1.916383 151.022436 -26.723170 28.495606 2.656099 -1.528630 1.514439 138.069556 -28.483772 39.966746 2.020910 -1.154074 1.115149 0.000003 -0.000000 0.000001 9.109362 -0.517902 2.259739 70.821193 -17.707339 12.629384 3.700055 0.000095 -0.000460 65.952266 -20.391407 13.323775 2.850048 0.000116 0.000229 63.594840 -15.889264 9.888894 2.774905 -0.000010 -0.000026 0.000002 -0.000003 -0.000001 9.533453 0.000153 -0.000086 68.254463 -16.058314 10.915872 3.700058 0.000115 -0.000359 73.090708 -19.235437 14.315330 2.950054 0.000078 -0.000176 66.954849 -23.257913 15.502649 2.952865 -0.000033 0.000065 0.000000 -0.000001 0.000000 9.104570 -0.042897 -1.865207 69.824573 -16.004769 11.208908 3.150048 0.000146 -0.000090 72.571272 -17.128397 12.620124 2.950034 0.000109 -0.000050 69.855521 -18.604185 13.051874 2.644332 0.000027 0.000059 0.000001 0.000004 0.000000 8.077823 -0.486772 -3.806394 60.928033 -17.649388 10.800793 3.599996 0.000111 0.014591 59.292742 -14.364299 8.509948 2.100037 0.000122 0.007551 61.378259 -14.273407 8.803731 2.125505 -0.000017 0.007515 0.000000 -0.000001 -0.000000 -8.207786 -6.751667 -1.599560 -0.077001 -0.000003 0.000080 -0.000002 -44.370110 0.345938 0.153719 -0.000000 -0.000000 0.000000 -44.423679 -3.043532 -0.076700 0.000000 -0.000002 -0.000006 -8.728667 10.710559 -0.000009 -0.000000 -0.000000 -0.000001 -0.000679 9.278123 0.000000 -0.000000 -0.000000 8.207792 -6.751710 -1.599556 -0.074518 -0.000003 0.000081 -0.000002 -44.370014 0.346960 0.148822 0.000002 0.000000 -0.000001 -44.423664 -3.044403 -0.074314 0.000000 -0.000002 -0.000004 -8.728671 10.710558 0.000007 -0.000000 -0.000000 0.000000 -0.000680 9.278137 -0.000000 0.000000 -0.000001 
0.000006 104.270477 1.554256 0.000010 0.000003 -0.000113 -0.000005 10.181587 0.131522 0.000001 -0.000003 0.000084 -0.000000 9.893967 -1.470711 0.000001 0.000000 -0.000000 -0.000000 9.220802 -1.370642 0.000000 -0.000000 -0.000000 0.000001 16.740433 -2.049030 0.000000 -0.000000 -0.000000 0.000000 9.617859 1.685014 0.000000 0.000000 0.000000 0.000002 22.037384 7.501101 0.000000 -0.000000 0.000000 -4.569968 11.014880 -2.160881 0.000008 0.000001 -0.000038 -10.592871 -0.524767 -2.231895 74.074467 30.608543 -23.333905 -27.841518 -0.000004 0.000541 -53.461738 106.523371 68.016602 -28.328827 0.000019 0.000025 -0.000317 -0.000044 0.000007 -2.464397 -1.573857 2.682362 -40.521972 -157.552356 6.605453 -3.215271 -1.872539 1.924651 151.527897 32.455638 12.666086 -2.654973 -1.527886 1.513059 144.613765 27.706478 -32.995128 -2.018841 -1.152013 1.108063 -0.000002 0.000002 0.000002 -9.108366 -0.517559 2.260138 99.128093 17.685936 -20.748160 -3.700064 0.000317 0.001510 95.435201 14.684427 -16.103312 -2.850116 0.000366 -0.000250 95.597370 12.412606 -13.675998 -2.772150 0.000001 -0.000018 0.000001 0.000001 0.000001 -9.532589 0.000257 0.000243 91.025432 17.164988 -17.616610 -3.700064 0.000327 0.003965 93.700114 11.087643 -11.723040 -2.950053 0.000331 -0.001805 97.194309 12.149839 -13.757090 -2.946626 -0.000014 -0.000159 -0.000003 -0.000000 0.000001 -9.103704 -0.042774 -1.864869 89.965107 18.312196 -18.256136 -3.379313 0.000317 -0.000826 91.422471 6.336188 -6.512157 -2.889740 0.000355 0.000635 98.363453 5.339467 -6.231881 -2.638808 -0.000003 0.000937 -0.000000 0.000002 -0.000001 -8.076758 -0.486415 -3.806015 83.726030 19.698636 -17.546812 -3.600044 0.000281 -0.003520 88.665063 7.488654 -6.974100 -2.100006 0.000329 -0.005495 91.099841 4.468895 -4.335602 -2.115782 -0.000052 -0.003679 -0.000001 -0.000002 -0.000004 4.570446 11.014691 -2.160851 -0.000018 0.000010 -0.000021 10.592409 -0.524460 -2.232371 75.854100 -14.681736 11.465265 27.841827 0.000062 -0.000213 108.647819 -71.651819 90.316117 28.328823 -0.000028 0.000020 0.000021 -0.000089 0.000000 2.465917 -1.576089 2.681915 -49.223097 180.336952 14.431143 3.217880 -1.871835 1.916400 154.209935 -24.417819 39.496457 2.656090 -1.528685 1.514477 133.662362 -29.586112 53.141925 2.020892 -1.154082 1.115147 -0.000000 0.000004 -0.000001 9.109361 -0.517910 2.259742 70.761846 -19.893950 14.189110 3.700011 0.000101 -0.000457 65.521185 -14.298347 9.240139 2.850062 0.000120 0.000210 64.627755 -12.017056 7.616845 2.774886 -0.000043 -0.000024 0.000002 -0.000004 -0.000002 9.533447 0.000158 -0.000086 69.447526 -18.089047 12.584378 3.700042 0.000129 -0.000380 71.147902 -12.739854 9.128486 2.950061 0.000121 -0.000193 70.145927 -14.408894 10.145813 2.952874 -0.000028 0.000063 0.000000 -0.000002 -0.000000 9.104592 -0.042902 -1.865230 69.729401 -17.437463 12.198369 3.150033 0.000142 -0.000098 72.822473 -11.473413 8.476663 2.950017 0.000139 -0.000099 73.328863 -11.329996 8.447763 2.644315 0.000030 0.000058 -0.000001 0.000002 0.000001 8.077830 -0.486777 -3.806383 61.483034 -18.272918 11.299165 3.600001 0.000115 0.014585 62.473507 -14.539304 9.171864 2.100040 0.000123 0.007549 64.629982 -12.115487 7.993359 2.125508 -0.000001 0.007511 0.000000 -0.000001 -0.000002 -8.207786 -6.751667 -1.599560 -0.077001 -0.000003 0.000080 -0.000002 -44.370110 0.345938 0.153719 -0.000000 -0.000000 0.000000 -44.423679 -3.043532 -0.076700 0.000000 -0.000002 -0.000006 -8.728667 10.710559 -0.000009 -0.000000 -0.000000 -0.000001 -0.000679 9.278123 0.000000 -0.000000 -0.000000 8.207792 -6.751710 -1.599556 -0.074518 -0.000003 0.000081 -0.000002 -44.370014 0.346960 0.148822 0.000002 0.000000 -0.000001 -44.423664 -3.044403 -0.074314 0.000000 -0.000002 -0.000004 -8.728671 10.710558 0.000007 -0.000000 -0.000000 0.000000 -0.000680 9.278137 -0.000000 0.000000 -0.000001 
0.000006 104.270477 1.554256 0.000010 0.000003 -0.000113 -0.000005 10.181587 0.131522 0.000001 -0.000003 0.000084 -0.000000 9.893967 -1.470711 0.000001 0.000000 -0.000000 -0.000000 9.220802 -1.370642 0.000000 -0.000000 -0.000000 0.000001 16.740433 -2.049030 0.000000 -0.000000 -0.000000 0.000000 9.617859 1.685014 0.000000 0.000000 0.000000 0.000002 22.037384 7.501101 0.000000 -0.000000 0.000000 -4.569968 11.014880 -2.160881 0.000008 0.000001 -0.000038 -10.592872 -0.524772 -2.231878 74.469716 33.189187 -25.523027 -27.841537 -0.000003 0.000543 -52.340177 104.865219 65.146044 -28.328815 0.000009 0.000033 -0.000321 -0.000042 0.000004 -2.464416 -1.573844 2.682351 -40.893179 -157.941417 5.895674 -3.215272 -1.872544 1.924639 151.677369 32.372737 11.880456 -2.654973 -1.527893 1.513066 144.602126 27.675356 -33.439773 -2.018834 -1.152030 1.108059 -0.000004 -0.000006 -0.000001 -9.108390 -0.517569 2.260135 99.146363 17.839486 -20.933435 -3.700070 0.000308 0.001511 95.240281 14.658699 -16.021006 -2.850094 0.000364 -0.000265 94.985774 12.382881 -13.499182 -2.772169 -0.000001 -0.000019 0.000000 -0.000001 -0.000001 -9.532599 0.000264 0.000240 90.998699 17.218460 -17.662958 -3.700063 0.000314 0.003965 92.963758 11.188576 -11.680185 -2.950067 0.000332 -0.001781 96.055566 12.215208 -13.559574 -2.946623 -0.000012 -0.000154 0.000001 -0.000000 -0.000001 -9.103710 -0.042762 -1.864886 90.070258 18.691714 -18.668932 -3.379328 0.000329 -0.000823 91.381545 6.541635 -6.717996 -2.889753 0.000350 0.000626 98.413156 5.407218 -6.315832 -2.638816 -0.000017 0.000937 -0.000002 0.000003 0.000003 -8.076771 -0.486411 -3.806026 84.040956 19.983414 -17.900271 -3.600032 0.000279 -0.003526 88.395345 7.221312 -6.682632 -2.099986 0.000324 -0.005496 90.839542 4.275396 -4.120254 -2.115791 -0.000042 -0.003681 0.000002 -0.000000 -0.000006 4.570446 11.014691 -2.160851 -0.000018 0.000010 -0.000021 10.592432 -0.524456 -2.232379 75.534024 -23.561450 18.357535 27.841831 0.000046 -0.000166 109.734079 -74.065130 93.988799 28.328836 -0.000028 0.000017 0.000022 -0.000088 0.000001 2.466231 -1.575913 2.681797 21.347693 190.849801 -140.513261 3.217858 -1.871890 1.916445 160.944611 -18.345086 57.205355 2.656109 -1.528702 1.514504 136.947451 -28.355737 62.474866 2.020887 -1.154052 1.115146 0.000003 0.000004 0.000004 9.109389 -0.517942 2.259774 65.049062 -29.027491 18.737972 3.700037 0.000094 -0.000456 66.282963 -20.766770 13.657081 2.850042 0.000130 0.000222 69.070472 -16.595102 11.461704 2.774881 -0.000030 -0.000041 -0.000002 0.000001 -0.000001 9.533484 0.000119 -0.000059 62.824012 -26.490030 16.353286 3.700046 0.000111 -0.000350 70.004228 -17.307708 12.164989 2.950045 0.000129 -0.000193 72.522190 -16.432991 12.094581 2.952877 -0.000033 0.000066 -0.000002 -0.000000 -0.000002 9.104591 -0.042929 -1.865199 63.183034 -25.470773 15.827676 3.150037 0.000130 -0.000077 67.248998 -15.709256 10.484778 2.949996 0.000123 -0.000080 72.162841 -11.871841 8.667031 2.644319 0.000014 0.000051 -0.000000 -0.000001 -0.000000 8.077843 -0.486790 -3.806379 59.049144 -24.866596 14.618931 3.600013 0.000092 0.014597 58.849777 -19.422679 11.350548 2.100022 0.000107 0.007553 65.633371 -14.695244 9.836015 2.125492 -0.000013 0.007517 -0.000001 0.000002 -0.000002 -8.207786 -6.751667 -1.599560 -0.077001 -0.000003 0.000080 -0.000002 -44.370110 0.345938 0.153719 -0.000000 -0.000000 0.000000 -44.423679 -3.043532 -0.076700 0.000000 -0.000002 -0.000006 -8.728667 10.710559 -0.000009 -0.000000 -0.000000 -0.000001 -0.000679 9.278123 0.000000 -0.000000 -0.000000 8.207792 -6.751710 -1.599556 -0.074518 -0.000003 0.000081 -0.000002 -44.370014 0.346960 0.148822 0.000002 0.000000 -0.000001 -44.423664 -3.044403 -0.074314 0.000000 -0.000002 -0.000004 -8.728671 10.710558 0.000007 -0.000000 -0.000000 0.000000 -0.000680 9.278137 -0.000000 0.000000 -0.000001 
